<svg width="280" height="280" xmlns="http://www.w3.org/2000/svg" version="1.1" xmlns:xlink="http://www.w3.org/1999/xlink" xmlns:svgjs="http://svgjs.com/svgjs">
    <rect width="100%" height="100%" fill="#d43a3a"></rect>
    <svg width="240" height="240" x="25" y="100">
        <path fill="#fff" d="M20.22265625,47.4703125q-0.178125-0.512109375-0.200390625-1.091015625l0-0.0890625q0-0.734765625,0.31171875-1.29140625q0.333984375-0.601171875,0.957421875-0.890625q0.423046875-0.22265625,0.890625-0.22265625q0.178125,0,0.35625,0.022265625q0.690234375,0.111328125,1.29140625,0.5900390625t0.93515625,1.2134765625q0.0890625,0.200390625,0.155859375,0.423046875l0.022265625,0q0.200390625,0.779296875,0.823828125,1.5140625q0.93515625,1.135546875,2.605078125,1.7478515625t3.51796875,0.6123046875t3.540234375-0.6345703125t2.605078125-1.758984375t0.912890625-2.3044921875q0-1.20234375-0.912890625-2.315625t-2.605078125-1.758984375t-3.540234375-0.645703125l-0.244921875,0q-2.694140625-0.04453125-5.143359375-1.20234375q-2.560546875-1.180078125-3.9966796875-3.33984375t-1.4361328125-4.5421875q0-2.337890625,1.4361328125-4.5087890625t3.9966796875-3.362109375t5.38828125-1.1912109375t5.4216796875,1.224609375t3.9966796875,3.384375q0.57890625,0.93515625,0.912890625,1.8703125q0.244921875,0.645703125,0.2671875,1.358203125l0,0.0890625q0,0.7125-0.31171875,1.269140625q-0.333984375,0.601171875-0.93515625,0.912890625q-0.423046875,0.200390625-0.912890625,0.200390625q-0.155859375,0-0.333984375-0.022265625q-0.690234375-0.0890625-1.269140625-0.57890625t-0.912890625-1.180078125q-0.13359375-0.289453125-0.22265625-0.601171875q-0.178125-0.556640625-0.57890625-1.091015625q-0.779296875-1.02421875-2.18203125-1.625390625t-2.9390625-0.601171875t-2.9279296875,0.57890625t-2.1708984375,1.6142578125t-0.779296875,2.1708984375q0,1.11328125,0.779296875,2.159765625t2.1708984375,1.6142578125t2.9279296875,0.5677734375l0.066796875,0q3.094921875,0.022265625,5.944921875,1.269140625q2.872265625,1.29140625,4.4197265625,3.5736328125t1.5474609375,4.6869140625q0,2.426953125-1.5474609375,4.698046875t-4.4197265625,3.5736328125t-6.01171875,1.3025390625t-5.9783203125-1.246875t-4.4197265625-3.540234375q-0.890625-1.269140625-1.29140625-2.605078125l0.022265625,0z M60.60248046875,49.986328125q2.248828125,0,4.3640625-1.46953125t3.317578125-4.1970703125t1.20234375-5.7111328125q0-2.961328125-1.1689453125-5.6666015625t-3.2841796875-4.1970703125t-4.430859375-1.491796875q-2.27109375,0-4.386328125,1.491796875t-3.2841796875,4.1970703125t-1.1689453125,5.6666015625q0,2.98359375,1.20234375,5.7111328125t3.3064453125,4.1970703125t4.3306640625,1.46953125z M74.25130859375,56.710546875q0.022265625,0.200390625,0.022265625,0.40078125q0,0.75703125-0.3228515625,1.447265625t-0.890625,1.06875t-1.1912109375,0.378515625t-1.1912109375-0.3896484375t-0.8794921875-1.0798828125t-0.31171875-1.425l0-0.022265625l-0.022265625,0l0-6.033984375q-0.9796875,0.9796875-2.159765625,1.73671875q-3.25078125,2.115234375-6.701953125,2.115234375q-3.42890625,0-6.6796875-2.1041015625t-5.0876953125-6.01171875t-1.8369140625-8.1826171875q0-4.252734375,1.7923828125-8.1158203125t5.0431640625-6.0228515625q3.20625-2.09296875,6.657421875-2.1375l11.377734375,0q0.601171875,0,1.180078125,0.378515625q0.556640625,0.378515625,0.8794921875,1.06875t0.3228515625,1.447265625l0,31.48359375z M82.1901171875,51.767578125q0,0.734765625-0.31171875,1.425t-0.890625,1.0798828125t-1.20234375,0.3896484375t-1.1912109375-0.378515625t-0.8794921875-1.06875t-0.31171875-1.447265625l0-31.906640625q0-0.75703125,0.31171875-1.447265625t0.8794921875-1.06875t1.1912109375-0.378515625q0.645703125,0,1.2134765625,0.3896484375t0.8794921875,1.0798828125t0.31171875,1.425l0,31.906640625z M113.386484375,25.69453125q0-0.779296875,0.31171875-1.46953125t0.890625-1.0798828125t1.20234375-0.3896484375t1.1912109375,0.378515625t0.8794921875,1.06875t0.31171875,1.491796875q0,2.98359375-1.536328125,5.74453125q-1.180078125,2.09296875-3.139453125,3.51796875q1.959375,1.402734375,3.139453125,3.495703125q1.491796875,2.671875,1.536328125,5.499609375l0,7.815234375q0,0.75703125-0.31171875,1.447265625t-0.8794921875,1.06875t-1.1912109375,0.378515625l-0.022265625,0q-0.6234375,0-1.1912109375-0.378515625t-0.8794921875-1.06875t-0.31171875-1.447265625l0-7.637109375q0-1.714453125-0.93515625-3.33984375t-2.6607421875-2.53828125t-3.6181640625-0.912890625l-7.191796875,0l0,14.428125q0,0.734765625-0.31171875,1.425t-0.890625,1.0798828125t-1.20234375,0.3896484375t-1.1912109375-0.378515625t-0.8794921875-1.06875t-0.31171875-1.447265625l0-31.906640625q0-0.75703125,0.31171875-1.447265625t0.8794921875-1.06875t1.1912109375-0.378515625q0.645703125,0,1.2134765625,0.3896484375t0.8794921875,1.0798828125t0.31171875,1.425l0,12.69140625l7.191796875,0q1.892578125,0,3.6181640625-0.912890625t2.6607421875-2.53828125t0.93515625-3.406640625z M130.57666015625,28.45546875q-2.1041015625,1.46953125-3.3064453125,4.1970703125t-1.20234375,5.7111328125q0,2.961328125,1.1689453125,5.6666015625t3.2841796875,4.1970703125t4.386328125,1.491796875q2.315625,0,4.430859375-1.491796875t3.2841796875-4.1970703125t1.1689453125-5.6666015625q0-2.98359375-1.20234375-5.7111328125t-3.317578125-4.1970703125t-4.3640625-1.46953125q-2.2265625,0-4.3306640625,1.46953125z M148.53388671875,37.45078125l0.022265625,0l0,14.29453125q0,0.75703125-0.3228515625,1.447265625t-0.8794921875,1.06875q-0.57890625,0.378515625-1.180078125,0.378515625l-11.377734375,0q-3.451171875-0.04453125-6.657421875-2.159765625q-3.25078125-2.1375-5.0431640625-6.0005859375t-1.7923828125-8.1158203125q0-4.275,1.8369140625-8.1826171875t5.0876953125-6.01171875t6.6796875-2.1041015625q3.451171875,0,6.701953125,2.1041015625t5.098828125,6.0005859375q1.64765625,3.495703125,1.82578125,7.280859375z M156.4726953125,22.75546875l7.280859375,0l0,0.022265625q0.734765625,0,1.425,0.31171875t1.06875,0.8794921875t0.378515625,1.1912109375t-0.3896484375,1.20234375t-1.0798828125,0.890625t-1.425,0.31171875q-0.200390625,0-0.378515625-0.022265625l-6.880078125,0l0,15.54140625q0,1.78125,0.9462890625,3.3955078125t2.6607421875,2.5048828125t3.584765625,0.890625l0.13359375,0q1.8703125,0,3.584765625-0.890625t2.6607421875-2.5048828125t0.9462890625-3.3955078125l0-0.289453125q0-0.75703125,0.31171875-1.447265625t0.8794921875-1.06875t1.1912109375-0.378515625t1.20234375,0.3896484375t0.890625,1.0798828125t0.31171875,1.425l0,0.423046875q-0.04453125,2.9390625-1.580859375,5.633203125q-1.580859375,2.7609375-4.40859375,4.275t-5.92265625,1.536328125l-0.200390625,0q-3.139453125,0-5.9783203125-1.5251953125t-4.4197265625-4.2861328125q-1.536328125-2.694140625-1.580859375-5.633203125l0-23.356640625q0-0.734765625,0.31171875-1.425t0.890625-1.0798828125t1.20234375-0.3896484375t1.1912109375,0.378515625t0.8794921875,1.06875t0.31171875,1.447265625l0,2.89453125z M188.18005859375,28.45546875q-2.1041015625,1.46953125-3.3064453125,4.1970703125t-1.20234375,5.7111328125q0,2.961328125,1.1689453125,5.6666015625t3.2841796875,4.1970703125t4.386328125,1.491796875q2.315625,0,4.430859375-1.491796875t3.2841796875-4.1970703125t1.1689453125-5.6666015625q0-2.98359375-1.20234375-5.7111328125t-3.317578125-4.1970703125t-4.3640625-1.46953125q-2.2265625,0-4.3306640625,1.46953125z M206.13728515625,37.45078125l0.022265625,0l0,14.29453125q0,0.75703125-0.3228515625,1.447265625t-0.8794921875,1.06875q-0.57890625,0.378515625-1.180078125,0.378515625l-11.377734375,0q-3.451171875-0.04453125-6.657421875-2.159765625q-3.25078125-2.1375-5.0431640625-6.0005859375t-1.7923828125-8.1158203125q0-4.275,1.8369140625-8.1826171875t5.0876953125-6.01171875t6.6796875-2.1041015625q3.451171875,0,6.701953125,2.1041015625t5.098828125,6.0005859375q1.64765625,3.495703125,1.82578125,7.280859375z"></path>
    </svg>
</svg>