<?xml version="1.0" encoding="utf-8"?>
<!DOCTYPE svg PUBLIC "-//W3C//DTD SVG 1.1//EN" "http://www.w3.org/Graphics/SVG/1.1/DTD/svg11.dtd">
<svg version="1.1" id="Layer_1" xmlns="http://www.w3.org/2000/svg" xmlns:xlink="http://www.w3.org/1999/xlink" x="0px" y="0px"
	 width="360px" height="360px" viewBox="0 0 360 360" enable-background="new 0 0 360 360" xml:space="preserve">
<rect fill="#D43B3A" width="360" height="360"/>
<g>
	<path fill="#F1F2F2" d="M40.895,147.048c7.26,1.255,10.891,4.564,10.891,9.93c-0.215,1.281-0.535,1.922-0.961,1.922h-0.641
		c-0.24-2.883-1.049-5.005-2.422-6.366c-1.377-1.361-3.023-2.122-4.945-2.282c-2.75,5.445-3.491,10.097-2.223,13.954
		c1.268,3.857,4.424,7.201,9.469,10.03c5.045,2.83,7.541,7.574,7.488,14.234c-0.055,6.66-2.449,10.576-7.188,11.751
		s-9.403,1.762-13.994,1.762c-6.46-0.454-10.744-4.364-12.853-11.731l-0.32-5.125v-0.961c0-1.574,0.32-2.429,0.961-2.562h1.281
		c-0.267,5.766,1.067,10.27,4.004,13.514c2.936,3.242,6.206,4.57,9.81,3.983c3.737,0,6.251-3.043,7.548-9.129
		c1.293-6.086-0.035-10.744-3.984-13.974c-8.302-3.897-13.067-8.655-14.294-14.274c-1.228-5.619,1.401-10.296,7.888-14.034
		C37.558,147.262,39.053,147.048,40.895,147.048z M31.265,163.083c1.081,2.149,4.117,4.718,9.109,7.708
		c-3.924-7.634-4.391-14.16-1.401-19.579v-0.961h-0.641c-3.55,1.041-5.886,2.903-7.007,5.585S30.184,160.935,31.265,163.083z
		 M46.379,175.476c3.764,6.433,4.084,13.947,0.961,22.542c4.271-0.08,6.908-2.643,7.908-7.688c1.002-5.045-1.115-9.396-6.346-13.053
		L46.379,175.476z"/>
	<path fill="#F1F2F2" d="M110.562,148.449l0.24,5.005c0.507,28.802,0.693,51.624,0.561,68.467l0.04,2.883
		c0.026,1.628-1.241,2.603-3.804,2.923l-2.683,0.2l-2.522,0.04l-3.243-0.28c-1.281,0.026-1.989-3.911-2.122-11.812l0.601-18.578
		l0.28-1.602h-0.32c-3.951,3.631-9.236,4.992-15.855,4.084c-6.62-0.907-11.611-3.824-14.975-8.748
		c-3.363-4.926-3.45-12.526-0.261-22.803c3.189-10.276,8.462-16.316,15.816-18.118c7.353-1.802,12.312,0.154,14.874,5.866h0.32
		l-0.04-1.922c-0.08-3.604,0.627-5.752,2.122-6.446C107.199,147.635,110.855,147.916,110.562,148.449z M95.627,159.54
		c-1.201-5.952-5.125-7.948-11.771-5.986s-11.512,7.434-14.594,16.416c-3.084,8.982-2.65,15.769,1.301,20.36
		c3.95,4.592,8.682,6.793,14.193,6.606s9.17-1.515,10.971-3.983c1.803-2.469,2.663-6.359,2.583-11.672
		C98.096,170.765,97.202,163.518,95.627,159.54z M100.913,151.092l-0.28,1.281l-0.04,65.704v1.281l0.44,5.125v0.32l6.847-0.601
		l-0.12-6.727c0.08-19.646,0.12-41.721,0.12-66.225v-0.32L100.913,151.092z"/>
	<path fill="#F1F2F2" d="M132.984,130.312c1.922,0,2.883,1.708,2.883,5.125c0.4,41,0.627,62.301,0.681,63.902
		c0.08,1.361-4.432,1.842-13.533,1.441c-0.641-45.725-0.44-68.587,0.601-68.587C123.615,131.259,126.738,130.632,132.984,130.312z
		 M125.537,134.756l0.36,62.901l2.562,0.16l4.925-0.561l-0.721-61.5l-0.32-1.922l-4.885,0.28L125.537,134.756z"/>
	<path fill="#F1F2F2" d="M185.355,128.87l5.445-0.28c4.244,0.187,6.219,0.307,5.926,0.36c1.146,1.869,1.947,15.335,2.402,40.399
		h0.961c7.02-9.796,11.611-15.668,13.773-17.617h0.32l0.961,0.961v0.961c-2.777,4.271-7.262,10.357-13.453,18.258v0.641
		c11.477,14.094,17.777,22.462,18.898,25.104v0.32l-1.281,0.961h-0.641c-6.273-8.328-9.689-12.318-10.25-11.972
		c-2.777-3.363-5.553-7.313-8.328-11.852h-0.32l-0.281,24.304c0.268,1.201-4.484,1.295-14.254,0.28
		c-0.24-0.053-0.627-22.795-1.16-68.227C183.674,129.177,184.1,128.31,185.355,128.87z M187.277,131.793
		c-0.188,13.16-0.027,34.18,0.48,63.062l0.32,2.442c4.617,0.48,7.379,0.4,8.287-0.24c-0.828-43.322-1.949-64.983-3.363-64.983
		L187.277,131.793z"/>
	<path fill="#F1F2F2" d="M250.299,149.45c4.217,2.803,6.666,11.705,7.348,26.706c0.68,15.002,0.98,22.949,0.9,23.844
		s-3.537,1.381-10.369,1.461h-0.32c-1.068-0.48-1.602-1.548-1.602-3.203l-0.32-0.44c-5.473,2.776-10.445,3.403-14.916,1.882
		s-6.68-5.479-6.625-11.871c0.053-6.393,2.035-11.692,5.945-15.896s8.895-6.252,14.955-6.146v-0.32
		c-0.135-10.036-1.029-15.121-2.684-15.255c-4.805-0.427-7.967,1.001-9.488,4.284s-2.758,4.725-3.705,4.324
		s-1.408-1.121-1.381-2.162c2.375-4.991,5.625-8.141,9.75-9.449C241.91,145.9,246.082,146.647,250.299,149.45z M227.857,185.426
		c-0.414,7.807,2.369,11.758,8.348,11.852s9.115-1.969,9.41-6.187l0.32-15.695l-0.32-3.844c0.32-2.536-2.457-2.809-8.328-0.821
		C231.414,172.72,228.271,177.618,227.857,185.426z M246.535,150.411v0.961c1.068,5.792,1.828,11.878,2.283,18.258l0.52,28.868h0.32
		l5.686,0.2c-0.641-25.385-1.842-39.692-3.604-42.922C249.979,152.547,248.244,150.758,246.535,150.411z"/>
	<path fill="#F1F2F2" d="M284.613,128.91c1.922,0,2.883,2.562,2.883,7.688l-0.561,14.935h0.32l11.211-0.641l1.281,0.961v0.961
		c0,1.068-2.35,1.602-7.047,1.602h-3.203l-3.203,0.32c-0.936,25.305,0.213,38.905,3.443,40.8c3.203,0,4.684-6.112,4.443-18.338
		v-1.602l0.961-0.961h0.961c0.854,0.294,1.281,1.148,1.281,2.562c0.24,13.561-2.842,21.381-9.248,23.463
		c-1.121,0.641-2.938,0.961-5.445,0.961c-3.23-0.133-5.746-2.402-7.549-6.807c-1.801-4.404-2.902-17.804-3.303-40.199l-6.486-0.2
		c-1.201,0-1.947-0.534-2.242-1.602c0.215-0.854,0.855-1.281,1.922-1.281h1.602l5.566,0.36c0.16-0.08,0.453-7.38,0.881-21.901
		C274.469,129.137,278.312,128.777,284.613,128.91z M275.324,132.874c-1.496,43.349,0.641,65.091,6.406,65.224h3.523l1.602-0.32
		c-2.297-2.535-3.443-17.523-3.443-44.964l0.881-15.896v-4.484l-0.641-0.641h-0.961C277.779,131.66,275.324,132.02,275.324,132.874z
		"/>
	<path fill="#F1F2F2" d="M331.658,149.45c4.217,2.803,6.666,11.705,7.348,26.706c0.68,15.002,0.98,22.949,0.9,23.844
		s-3.537,1.381-10.369,1.461h-0.32c-1.068-0.48-1.602-1.548-1.602-3.203l-0.32-0.44c-5.473,2.776-10.445,3.403-14.916,1.882
		s-6.68-5.479-6.625-11.871c0.053-6.393,2.035-11.692,5.945-15.896s8.895-6.252,14.955-6.146v-0.32
		c-0.135-10.036-1.029-15.121-2.684-15.255c-4.805-0.427-7.967,1.001-9.488,4.284s-2.758,4.725-3.705,4.324
		s-1.408-1.121-1.381-2.162c2.375-4.991,5.625-8.141,9.75-9.449C323.27,145.9,327.441,146.647,331.658,149.45z M309.217,185.426
		c-0.414,7.807,2.369,11.758,8.348,11.852s9.115-1.969,9.41-6.187l0.32-15.695l-0.32-3.844c0.32-2.536-2.457-2.809-8.328-0.821
		C312.773,172.72,309.631,177.618,309.217,185.426z M327.895,150.411v0.961c1.068,5.792,1.828,11.878,2.283,18.258l0.52,28.868h0.32
		l5.686,0.2c-0.641-25.385-1.842-39.692-3.604-42.922C331.338,152.547,329.604,150.758,327.895,150.411z"/>
</g>
</svg>
